<svg width="34" height="37" viewBox="0 0 34 37" fill="none" xmlns="http://www.w3.org/2000/svg">
<g filter="url(#filter0_d_173_805)">
<g clip-path="url(#clip0_173_805)">
<path d="M24.3794 2.48039C22.2218 1.49864 19.7398 1 17.0014 1C14.2432 1 11.7598 1.49864 9.62204 2.48186C9.26789 2.64475 9.11204 3.0655 9.27493 3.42111C9.43929 3.77525 9.85718 3.93111 10.2142 3.76821C12.1663 2.87146 14.45 2.41671 17.0014 2.41671C19.5358 2.41671 21.8195 2.87146 23.7915 3.76961C23.8864 3.8135 23.987 3.83336 24.0848 3.83336C24.3539 3.83336 24.6118 3.67896 24.7308 3.41825C24.8923 3.06264 24.735 2.64189 24.3794 2.48039Z" fill="#DFDFDF"/>
<path d="M27.4238 8.29436C24.5522 5.376 20.9468 3.83325 16.9986 3.83325C13.0659 3.83325 9.46332 5.376 6.58182 8.2929C6.30696 8.572 6.30982 9.02104 6.58746 9.2959C6.86657 9.57075 7.31421 9.5665 7.58907 9.29025C10.2 6.64682 13.4527 5.24996 16.9986 5.24996C20.5587 5.24996 23.8156 6.64682 26.4137 9.28886C26.5526 9.42911 26.7353 9.49996 26.9181 9.49996C27.0966 9.49996 27.2765 9.43196 27.4153 9.29596C27.6944 9.02111 27.6987 8.57346 27.4238 8.29436Z" fill="#CBCBCB"/>
<path d="M16.9986 6.66675C15.9885 6.66675 14.9855 6.79139 14.0165 7.03789C13.6368 7.13425 13.4073 7.51954 13.5036 7.89925C13.6 8.27889 13.9881 8.5056 14.365 8.41064C15.2192 8.19389 16.1061 8.08339 16.9986 8.08339C22.858 8.08339 27.6236 12.849 27.6236 18.7084C27.6236 19.0994 27.941 19.4167 28.332 19.4167C28.723 19.4167 29.0403 19.0994 29.0403 18.7084C29.0403 12.0685 23.6386 6.66675 16.9986 6.66675Z" fill="white"/>
<path d="M11.9213 8.54798C11.7258 8.21223 11.2937 8.09748 10.9523 8.29437C10.0484 8.82276 9.2084 9.47587 8.45894 10.2352C6.25319 12.4651 5.01079 15.4698 4.95979 18.6984C4.95415 19.0894 5.26579 19.411 5.65819 19.4166C5.66104 19.4166 5.66529 19.4166 5.66954 19.4166C6.0549 19.4166 6.37079 19.1078 6.37644 18.7196C6.42179 15.858 7.51829 13.1989 9.46619 11.2297C10.1292 10.5582 10.8701 9.98308 11.6677 9.51697C12.0048 9.32008 12.1182 8.88658 11.9213 8.54798Z" fill="white"/>
<path d="M23.9403 12.6634C22.1864 10.6531 19.6563 9.5 16.9986 9.5C14.5279 9.5 12.2117 10.469 10.4748 12.2271C8.74369 13.9752 7.79169 16.3397 7.79169 18.9195C7.79594 20.4438 7.31994 22.2713 6.46709 24.0266L6.06898 24.7349C5.87773 25.0763 5.99813 25.507 6.33959 25.6997C6.45009 25.762 6.56909 25.7918 6.68669 25.7918C6.93459 25.7918 7.17544 25.6614 7.30434 25.4305L7.72223 24.6854C8.70113 22.6709 9.21398 20.6762 9.20834 18.8827C9.20834 16.7138 10.0144 14.705 11.4807 13.2231C12.9512 11.7356 14.909 10.9168 16.9986 10.9168C19.2468 10.9168 21.3888 11.8929 22.8721 13.5957C23.1285 13.8903 23.5776 13.9201 23.8722 13.6637C24.1669 13.4057 24.1967 12.9581 23.9403 12.6634Z" fill="white"/>
<path d="M27.5245 26.8738L26.7255 24.2601C26.2764 22.2102 26.2382 20.2537 26.2141 19.0836L26.207 18.7082C26.207 17.6584 26.0299 16.6271 25.6814 15.6425C25.5511 15.2742 25.1502 15.0815 24.7776 15.2119C24.4092 15.3423 24.2166 15.746 24.3469 16.1158C24.6416 16.9474 24.7903 17.82 24.7903 18.7267L24.7988 19.112C24.8243 20.3331 24.8639 22.3774 25.3569 24.6172L26.1673 27.2862C26.2594 27.5922 26.5413 27.7877 26.8459 27.7877C26.9139 27.7877 26.9833 27.7778 27.0528 27.7579C27.4268 27.6431 27.6379 27.2492 27.5245 26.8738Z" fill="white"/>
<path d="M25.4575 30.1464L24.7988 28.037C23.63 24.3876 23.4119 20.285 23.3736 18.7082C23.3736 15.1935 20.5134 12.3333 16.9986 12.3333C13.4839 12.3333 10.625 15.2374 10.625 18.8315C10.6279 19.5766 10.4904 23.5136 7.49841 27.8287C7.27455 28.1504 7.3553 28.5924 7.67551 28.8147C7.99566 29.0371 8.43912 28.9579 8.66151 28.6376C11.815 24.0915 12.0459 19.979 12.0417 18.8088C12.0417 16.0194 14.2658 13.7513 16.9985 13.7513C19.7327 13.7513 21.9569 15.9754 21.9569 18.7266C22.0079 20.7836 22.27 24.7843 23.4487 28.4662L24.1032 30.5671C24.198 30.8703 24.4772 31.0644 24.7803 31.0644C24.8497 31.0644 24.9206 31.0545 24.9914 31.0332C25.3654 30.9156 25.5737 30.519 25.4575 30.1464Z" fill="#DADCDD"/>
<path d="M20.5403 18.7084C20.5403 16.7562 18.9508 15.1667 16.9986 15.1667C15.0465 15.1667 13.457 16.7562 13.457 18.7354C13.4655 18.9691 13.6227 24.5337 9.12339 30.3889C8.88539 30.6991 8.9435 31.144 9.25375 31.382C9.56539 31.6214 10.0089 31.5605 10.2469 31.2516C15.0536 24.9956 14.8807 18.9365 14.8722 18.7085C14.8722 17.5369 15.8256 16.5835 16.9972 16.5835C18.1689 16.5835 19.1222 17.5369 19.1236 18.7241C19.1435 19.5174 19.1477 26.6744 13.617 33.8597C13.379 34.17 13.4357 34.6148 13.7459 34.8528C13.8763 34.952 14.0278 35.0002 14.178 35.0002C14.3905 35.0002 14.6002 34.9053 14.739 34.7239C20.5771 27.1418 20.5601 19.5343 20.5403 18.7084Z" fill="#EEEEEE"/>
<path d="M17.7041 18.6773C17.6857 18.2877 17.3797 17.9775 16.966 18.0016C16.5764 18.0186 16.2733 18.3487 16.2889 18.7397C16.2889 18.7496 16.3285 19.7866 16.065 21.4257C16.0041 21.8124 16.2676 22.1765 16.6529 22.2388C16.6912 22.2445 16.7294 22.2473 16.7663 22.2473C17.1077 22.2473 17.4094 21.9994 17.4647 21.6523C17.7537 19.8546 17.707 18.7241 17.7041 18.6773Z" fill="white"/>
<path d="M16.3143 23.7164C15.9375 23.6045 15.5451 23.8198 15.4332 24.1938C14.5478 27.1844 13.0744 29.9809 11.0571 32.5082C10.8134 32.8142 10.863 33.259 11.169 33.5041C11.2993 33.6089 11.4551 33.6585 11.611 33.6585C11.8192 33.6585 12.0246 33.5678 12.1649 33.3921C14.297 30.7231 15.8539 27.7637 16.7931 24.5974C16.9037 24.2221 16.6898 23.8269 16.3143 23.7164Z" fill="white"/>
<path d="M23.1796 32.2034L22.3253 29.4905C21.9853 28.4734 21.668 27.3981 21.6666 27.3939C21.5816 27.1063 21.3266 26.9037 21.0277 26.8867C20.7217 26.8655 20.4511 27.0411 20.3349 27.3174C20.3193 27.3542 18.7412 31.0645 16.9321 33.912C16.7224 34.2421 16.8202 34.6798 17.1502 34.8895C17.2678 34.9646 17.3996 35 17.5299 35C17.765 35 17.9931 34.8838 18.1277 34.6713C19.2228 32.9472 20.2173 30.9653 20.8661 29.587C20.903 29.7003 20.9412 29.8151 20.9795 29.9283L21.8281 32.6285C21.9457 33.0011 22.3395 33.2107 22.7163 33.0917C23.0889 32.9741 23.2971 32.5774 23.1796 32.2034Z" fill="#BDBDBD"/>
</g>
</g>
<defs>
<filter id="filter0_d_173_805" x="-0.53125" y="0.601562" width="35.5938" height="35.5938" filterUnits="userSpaceOnUse" color-interpolation-filters="sRGB">
<feFlood flood-opacity="0" result="BackgroundImageFix"/>
<feColorMatrix in="SourceAlpha" type="matrix" values="0 0 0 0 0 0 0 0 0 0 0 0 0 0 0 0 0 0 127 0" result="hardAlpha"/>
<feOffset dx="0.265625" dy="0.398438"/>
<feGaussianBlur stdDeviation="0.398438"/>
<feColorMatrix type="matrix" values="0 0 0 0 0 0 0 0 0 0 0 0 0 0 0 0 0 0 0.08 0"/>
<feBlend mode="normal" in2="BackgroundImageFix" result="effect1_dropShadow_173_805"/>
<feBlend mode="normal" in="SourceGraphic" in2="effect1_dropShadow_173_805" result="shape"/>
</filter>
<clipPath id="clip0_173_805">
<rect y="1" width="34" height="34" fill="white"/>
</clipPath>
</defs>
</svg>
